<svg xmlns="http://www.w3.org/2000/svg" xmlns:xlink="http://www.w3.org/1999/xlink" width="2880" height="1000" viewBox="0 0 2880 1000"><defs><clipPath id="b"><rect width="2880" height="1000"/></clipPath></defs><g id="a" clip-path="url(#b)"><rect width="2880" height="1000" fill="#fff"/><rect width="2880" height="1000" fill="#f5f5f5"/><g transform="translate(0 10)"><path d="M136.766-40.4c68.853-1.483,131.271-49.234,130.584-81.123-.571-26.455-35.773-44.911-63.327-11.326L152.094-69.371c-32.15,39.123-96.854-19.3-46.7-47.213L125.1-127.522c30.089-16.963,18.892-48.627-6.993-55.32L52.489-199.557c-15.314-4.021-14.87-17.082-.924-26.083l115.519-73.549c16.451-10.5,25.745.171,23.2,16.54l-5.419,34.559c-3.179,20.734-2.5,52.261,28.011,54.867,37.048,3.19,47.412-20.6,46.866-45.965-1.015-47.11-42.893-89.352-112.47-87.853C63.921-325.245,6.912-262.021,8.77-175.773,10.441-98.224,51.244-38.557,136.766-40.4Z" transform="translate(408.274 837.848)" fill="#171717"/><path d="M536.429-94.649c-.484-22.467-18.923-36.935-42.848-36.782l-71.4.813c-13.771.3-19.632-2.477-19.811-10.812-.187-8.7,6.6-13.194,15.239-16.281l58.977-22.3c50.706-19.219,59.289-41.52,58.758-66.162-.7-32.615-23.3-88.686-112.809-86.758-110.163,2.373-159.962,97.346-157.309,220.556,1.117,51.821,26.5,68.677,48.963,68.193,41.311-.89,44.972-32.873,30.122-65.908l-38.836-86.175a55.177,55.177,0,0,1-5.163-20.917c-.555-25.729,19.263-48.272,56.588-49.075L470.321-268.7c26.454-.571,40.522,12.9,40.9,30.66.405,18.844-11.9,36.512-50.787,32.274l-110.468-11.76c-13.448-1.523-20.64,1.17-20.8,10.6.109,5.074,3.9,12.606,12.087,22.581L433.1-77.921c20.454,23.85,39.808,30.322,54.3,30.009C525.091-48.723,536.921-71.819,536.429-94.649Z" transform="translate(435.963 837.211)" fill="#171717"/><path d="M753.574-111.066,594.43-93.5c-20.98,2.265-30.613-7.316-30.831-17.463-.226-10.509,7.952-17.936,30-21.311l129.389-18.739c27.471-3.855,36.533-20.727,36.158-38.122-.288-13.408-5.728-30.331-37.837-39.79l-142.3-41.891c-17.149-5.069-20.2-12.254-20.4-21.314-.172-7.972,9.293-23.041,27.182-17.263l149.33,48.629c31.4,10.2,47.52,1.151,48.138-20.615.643-20.678-9.754-32.056-29.156-40.7-21.228-9.332-75.766-16.5-124.317-15.088-48.2,1.038-91.448,12.846-90.667,49.085.288,13.408,9.629,26.258,26.186,37.5L674.91-177.893c14.714,9.835,7.755,23.4-9.062,16.873l-73.117-28.154c-35.826-13.73-66.254,4.328-65.543,37.3,1.42,65.953,81.224,101.577,173.994,99.579,64.866-1.4,86.652-16.731,86.16-39.561C787.092-103.449,780.7-114.188,753.574-111.066Z" transform="translate(464.264 836.739)" fill="#171717"/><path d="M1242.841-301.79l-54.69,170.852c-14.005,39.819-5.429,67.551,33.339,66.716,34.791-.749,41.617-20.837,41.506-59.264l.177-177.291c-.133-22.837,3.645-32.345,13.429-32.556,12.321-.265,16.21,11.615,16.554,27.56l.343,15.945c1.075,50.008,12.1,73.7,45.051,71.9,23.179-1.224,40.143-21.531,39.655-44-1.086-50.371-41.727-85.75-107.309-84.337l-123.94,2.669c-37.683.812-49.173,22.812-48.774,41.294.9,41.674,54.979,61.537,87.52,23.856l39.611-46.172c3.534-4.064,7.49-5.962,10.748-6.032C1245.843-330.86,1249.644-322.6,1242.841-301.79Z" transform="translate(525.928 835.771)" fill="#171717"/><path d="M1483.659-355.853c-84.075,1.81-127.231,51.685-125.192,146.629S1405.745-67.761,1489.82-69.571c84.44-1.819,127.619-50.243,125.58-145.187S1568.088-357.672,1483.659-355.853ZM1588.653-210.92c12.642,14.592,9.373,30.977-7.878,38.238l-136.162,58.04c-28.73,12.22-51.976-6.132-42.192-40.422l45.55-157.24c5.4-18.969,28.4-28.166,42.525-12.156Z" transform="translate(554.032 834.735)" fill="#171717"/><path d="M1882.614-123.646c-.488-22.468-18.925-36.935-42.846-36.782l-71.41.813c-13.772.3-19.634-2.477-19.811-10.813-.188-8.7,6.6-13.194,15.246-16.28l58.968-22.3c50.713-19.22,59.289-41.52,58.768-66.163-.709-32.614-23.3-88.685-112.816-86.757-110.157,2.373-159.961,97.346-157.3,220.556,1.108,51.821,26.492,68.676,48.962,68.193,41.306-.891,44.974-32.873,30.115-65.908l-38.835-86.175a55.108,55.108,0,0,1-5.163-20.917c-.554-25.73,19.268-48.272,56.585-49.076L1816.5-297.7c26.459-.57,40.531,12.9,40.907,30.662.41,18.844-11.9,36.511-50.79,32.273l-110.467-11.759c-13.44-1.524-20.642,1.169-20.8,10.6.111,5.073,3.9,12.606,12.088,22.58l91.842,106.424c20.453,23.851,39.81,30.322,54.3,30.01C1871.279-77.721,1883.1-100.816,1882.614-123.646Z" transform="translate(581.344 834.079)" fill="#171717"/><path d="M955.471-105.6l31.392-4,5.479,42.957-31.392,4ZM935.449-262.581l31.392-4,16.387,128.478-31.392,4ZM1167.662-60.036l-3.634-28.509-31.179,3.977-7.291-57.208L1094.38-137.8l-7.269-57.014-31.389,4-7.3-57.209-31.178,3.977-7.272-57.015-31.178,3.977-7.3-57.209-62.567,7.981,7.3,57.208-31.178,3.977,7.272,57.016-31.177,3.977,7.3,57.209-31.392,4,7.272,57.014-31.178,3.977,7.3,57.208-31.178,3.977L792.9-12.235Z" transform="translate(492.567 834.909)" fill="#d0ff00"/><path d="M869.126-343.111l31.177-3.975,7.3,57.208L876.423-285.9Z" transform="translate(501.192 835.687)" fill="#171717" fill-rule="evenodd"/><path d="M988.458-305.858l31.181-3.978,7.269,57.016-31.178,3.977Z" transform="translate(514.08 839.71)" fill="#171717" fill-rule="evenodd"/><path d="M953.244-405.924l-62.567,7.981,7.3,57.208,62.568-7.98Z" transform="translate(503.52 829.333)" fill="#171717" fill-rule="evenodd"/><path d="M953.733-353.9l31.178-3.977,7.3,57.209-31.178,3.977Z" transform="translate(510.33 834.521)" fill="#171717" fill-rule="evenodd"/><path d="M1058.08-209.97l31.179-3.977,7.268,57.014-31.179,3.977Z" transform="translate(521.599 850.065)" fill="#171717" fill-rule="evenodd"/><path d="M1092.78-162.1l31.179-3.977,7.291,57.208-31.168,3.977Z" transform="translate(525.346 855.235)" fill="#171717" fill-rule="evenodd"/><path d="M1023.16-257.986l31.39-4,7.3,57.208-31.4,4Z" transform="translate(517.828 844.877)" fill="#171717" fill-rule="evenodd"/><path d="M939.271-129.448l31.392-4,5.479,42.957-31.392,4Z" transform="translate(508.768 858.758)" fill="#171717" fill-rule="evenodd"/><path d="M847.571-287.889l31.179-3.977,7.272,57.016-31.178,3.977Z" transform="translate(498.865 841.65)" fill="#171717" fill-rule="evenodd"/><path d="M921.2-271.13l31.392-4,16.387,128.478-31.392,4Z" transform="translate(506.816 843.457)" fill="#171717" fill-rule="evenodd"/><path d="M1167.067-114.056l3.634,28.507-374.765,47.8L792.3-66.255l-31.177,3.976L768.4-5.265l437.34-55.782-7.28-57.013Z" transform="translate(489.529 860.421)" fill="#171717"/><path d="M782.675-122.549l31.178-3.977,7.3,57.208-31.178,3.977Z" transform="translate(491.856 859.506)" fill="#171717" fill-rule="evenodd"/><path d="M825.8-232.814l31.391-4,7.3,57.209-31.392,4Z" transform="translate(496.514 847.595)" fill="#171717" fill-rule="evenodd"/><path d="M804.251-177.6l31.178-3.977,7.272,57.014-31.178,3.977Z" transform="translate(494.187 853.562)" fill="#171717" fill-rule="evenodd"/><g transform="translate(2000 679.964)"><path d="M64.253-83.83A66.413,66.413,0,0,1,57.1-93.5c-5.247-8.574-9.144-18.957-11.741-31.274C39.684-92.072,23.287-75.24,0-65.908c24.394,7.916,39.114,26.755,45.668,57.49C52.385-39.6,67.2-58.058,91.222-66.23a66.526,66.526,0,0,1-16.7-8.452A60.546,60.546,0,0,1,64.253-83.83" fill="#171717"/></g></g><g transform="translate(2240.285 231.096)"><path d="M5215.849,3628.656l-9.19,9.19,39.462,147.271,11.916-3.195,6.045-6.044-8.2,2.2Z" transform="translate(-5200.644 -3620.238)" fill="#fff"/><path d="M5360.436,3827.376l-9.13,2.447-4.9-18.261-9.133,2.446,2.455,9.131-1.742.467,3.552,13.258,9.132-2.445,4.892,18.264,9.13-2.449,2.445,9.131,11.92-3.195,6.045-6.045-8.2,2.2-2.448-9.133-9.127,2.448Z" transform="translate(-5252.854 -3693.35)" fill="#fff"/><path d="M5323.712,3728.391l-2.446-9.132,36.521-9.786-1.083-4.051-1.359-5.08-5.081,1.361-4.051,1.086-1.086-4.053-1.362-5.078-5.077,1.361-4.052,1.086-1.087-4.053-1.362-5.078-5.077,1.361-4.053,1.086-1.085-4.053-1.36-5.08-5.078,1.362-4.052,1.087-1.087-4.054-1.361-5.078-5.078,1.361-4.049,1.085-1.087-4.053-1.362-5.078-5.08,1.36-4.052,1.085-1.085-4.051-1.361-5.079-5.078,1.36-4.055,1.086-1.084-4.052-1.359-5.081-5.08,1.363-4.052,1.087-1.087-4.054-1.362-5.078-5.078,1.362-4.052,1.086-1.084-4.052-1.361-5.079-5.077,1.361-4.05,1.086-1.088-4.053h0l35.338,131.884,7.845-2.1,1.086-1.087-2.246-8.388,7.843-2.1,1.089-1.087-2.248-8.389,9.126-2.447-2.44-9.13,9.131-2.448,2.442,9.132,9.132-2.448,4.9,18.262,9.129-2.445,4.892,18.26,16.978-4.549,1.086-1.087-3.334-12.441-1.361-5.079-5.078,1.361-4.052,1.086-4.892-18.261-9.133,2.447Z" transform="translate(-5214.342 -3624.204)" fill="#fff"/><path d="M5394.047,3779.4l2.449,9.131,4.052-1.086-1.339-5,15.254-4.088,6.047-6.047Z" transform="translate(-5275.547 -3677.66)" fill="#fff"/><path d="M5351.827,3706.682l-2.514-9.393-2.45-9.131-9.128,2.448-2.449-9.132-9.13,2.447-2.446-9.131-9.135,2.447-2.439-9.131-9.136,2.448-2.446-9.132-9.129,2.448-2.45-9.134-9.127,2.446-2.451-9.13-9.129,2.448-2.444-9.133-9.132,2.448-2.445-9.131-9.133,2.445-2.447-9.131-9.129,2.445-2.451-9.13-9.131,2.447-2.443-9.131-9.394,2.515-13.483,13.482,41.663,155.487,9.389-2.518,9.135-2.447,13.477-13.48-1.083-4.067,7.42-7.416.354-.1-1.09-4.063,1.735-1.735,3.87,14.458,9.133-2.448,4.894,18.262,9.133-2.447,2.443,9.131,18.524-4.962,13.483-13.482-1.089-4.067,7.417-7.415.352-.1-4.961-18.523-9.13,2.446-4.8-17.923,11.442-3.067Zm-97.8,69.635-11.917,3.2-39.461-147.272,9.19-9.191,40.035,149.42,8.2-2.2Zm66.268-56.9,1.34,5-4.053,1.087,4.892,18.26,4.052-1.086,5.078-1.361,1.361,5.079,3.334,12.441-1.086,1.086-16.978,4.548,2.449,9.133,8.2-2.2-6.044,6.045-11.921,3.195-2.445-9.132-9.13,2.449-4.892-18.264-9.132,2.446-3.552-13.259,1.742-.466-2.455-9.132-9.127,2.448,2.247,8.388-1.088,1.088-7.842,2.1,2.246,8.388-1.086,1.088-7.846,2.1-35.338-131.883h0l1.089,4.052,4.049-1.085,5.077-1.362,1.36,5.079,1.085,4.053,4.052-1.086,5.079-1.362,1.362,5.079,1.086,4.054,4.053-1.087,5.079-1.363,1.36,5.081,1.084,4.052,4.054-1.086,5.078-1.36,1.361,5.079,1.085,4.051,4.053-1.085,5.079-1.36,1.362,5.078,1.087,4.053,4.049-1.086,5.077-1.362,1.362,5.078,1.087,4.054,4.052-1.086,5.078-1.363,1.361,5.08,1.085,4.053,4.054-1.087,5.076-1.36,1.362,5.078,1.086,4.053,4.052-1.086,5.078-1.362,1.362,5.078,1.086,4.053,4.053-1.086,5.08-1.361,1.358,5.08,1.084,4.051-36.521,9.787,2.446,9.131,2.445,9.133,9.133-2.447-2.449-9.132,26.465-7.091-6.048,6.047Z" transform="translate(-5196.636 -3614.631)" fill="#171717"/><rect width="9.453" height="9.452" transform="matrix(0.966, -0.259, 0.259, 0.966, 81.977, 111.529)" fill="#171717"/><rect width="9.454" height="18.907" transform="matrix(0.966, -0.259, 0.259, 0.966, 93.556, 118.211)" fill="#171717"/><rect width="9.45" height="18.906" transform="matrix(0.966, -0.259, 0.259, 0.966, 107.581, 134.026)" fill="#171717"/></g><g transform="translate(154 529.222)"><path d="M55.429-286.827a48.218,48.218,0,0,1-48.29-48.291,48.186,48.186,0,0,1,48.29-48.139,48.153,48.153,0,0,1,48.139,48.139,48.185,48.185,0,0,1-48.139,48.291m0-103.719A55.252,55.252,0,0,0,0-335.118,55.156,55.156,0,0,0,55.429-279.69a55.249,55.249,0,0,0,55.427-55.428,55.345,55.345,0,0,0-55.427-55.428" fill="#171717"/><path d="M101.635-161.489c-17.919,0-32.043-15.034-32.953-34.319H63.671c1.061,22.323,17.312,39.787,37.964,39.787,20.347,0,36.749-17.463,37.965-39.787h-5.165c-1.062,19.286-15.183,34.319-32.8,34.319" transform="translate(-45.598 -139.462)" fill="#171717"/><path d="M238.667-312.939c-3.3-1.31-6.24-2.5-9.187-3.64-2.63-1.019-4.26-3.714-4.9-8.024-.563-3.787-1.07-7.6-1.6-11.4-.162-1.176-.314-2.357-.5-3.8-.793,5.437-1.515,10.439-2.255,15.433-.6,4.044-2.137,6.641-4.548,7.661-3.078,1.3-6.178,2.453-9.461,3.745,2.347.821,4.574,1.8,6.837,2.349,4.7,1.146,7.246,5.639,7.99,13.289.347,3.547.815,7.061,1.364,11.757.594-4.759,1.134-8.388,1.487-12.068.728-7.585,3.341-11.807,7.892-12.981,2.23-.575,4.425-1.478,6.887-2.316" transform="translate(-147.677 -36.337)" fill="#171717"/><path d="M73.263-312.939c3.3-1.31,6.237-2.5,9.186-3.64,2.627-1.019,4.257-3.714,4.9-8.024.565-3.787,1.073-7.6,1.6-11.4.165-1.176.314-2.357.507-3.8.793,5.437,1.513,10.439,2.252,15.433.6,4.044,2.137,6.641,4.549,7.661,3.078,1.3,6.178,2.453,9.464,3.745-2.347.821-4.576,1.8-6.839,2.349-4.7,1.146-7.246,5.639-7.991,13.289-.344,3.547-.812,7.061-1.361,11.757-.594-4.759-1.134-8.388-1.487-12.068-.728-7.585-3.341-11.807-7.9-12.981-2.226-.575-4.425-1.478-6.884-2.316" transform="translate(-52.467 -36.337)" fill="#171717"/></g><g transform="translate(-8759.999 -3647.833)"><path d="M9715.323,3834.622c-19.208.413-34.216,10.526-41.329,33.52l-58.647,189.423c-5.087,16.424-12.484,43.412-32.049,43.833-12.681.274-20.829-7.527-21.155-22.747-.192-9.052,5.7-21.869,10.162-33.208l37.181-91.8c7.573-18.653,14.625-27.869,14.422-37.291-.209-9.784-8.007-18.319-19.964-18.06-10.15.221-19.036,8.386-31.854,19.176l-24.576,20.471c-9.263,7.45-14.222,13-21.256,6.258-5.551-5.318-1.772-14.826,6.346-25.151,4.942-6.27,26.149-31.743,26.175-47.333-.084-20.664-15.222-33.389-34.791-32.968-21.744.469-41.68,17.575-41.131,42.942.18,8.334,3.322,19.506,6.443,29.952l50.621,178.733c7.064,24.864,25.023,33.9,42.417,33.528,18.481-.4,30.338-5.366,48.178-35.48l101.479-170.046c8.753-14.329,20.03-29.436,19.7-44.652C9751.124,3847.268,9733.08,3834.242,9715.323,3834.622Z" fill="#171717"/><path d="M9833.767,4065.2l-43.078,19.776c-6.823,3.048-13.116-2.98-13.271-10.227-.078-3.623,1.671-6.562,7.328-13.21l67.511-80.492c23.326-28.056,10.34-58.593-26.164-53.457l-24.582,3.435c-3.253.432-9.417.565-9.545-5.6-.078-3.624,2.026-6.933,6.7-8.483l39.567-14.626c17.259-6.537,29.378-16.222,28.939-36.515-.466-21.743-18.5-34.044-36.978-33.647a37.526,37.526,0,0,0-28.356,13.3l-39.933,47.992c-8.829,10.7-16.591,20.657-16.466,26.457.142,6.523,3.146,11.533,12.2,11.338l15.584-.333c11.6-.249,18.184,2.509,18.362,10.844a24.416,24.416,0,0,1-.946,6.546L9763.6,4056.2c-9.006,36.453,10.8,63.576,52.108,62.686,27.9-.6,56.627-13.547,53.57-37.772C9866.652,4060.139,9848.847,4058.348,9833.767,4065.2Z" fill="#171717"/><path d="M9937.843,3915.027l125.517-63.975c21.517-10.978,32.582-2.153,32.959,15.241l1.329,61.6c.334,15.22,11.521,29.844,28.917,29.472,21.742-.469,29.217-23.833,28.785-43.766-.908-42.026-31.618-87.409-118.587-85.536-82.988,1.788-147.484,53.934-146.4,104.3.373,17.4,10.832,31.671,31.565,34.849l185.17,29.362c11.645,1.925,16.427,5.085,17.685,13.033,1.251,7.586-2.226,14.55-17.735,18.147l-155.462,37.071c-11.905,2.793-19.5,3.324-25.391-.542-3.68-2.458-4.905-8.957-.7-15.574l15.429-24.264c18.937-29.775-2.74-43.084-16.874-42.78-21.384.459-30.782,18.427-30.228,44.157,1.406,65.229,63.953,90.709,126.646,89.36,63.777-1.374,127.541-37.19,126.184-100.245-.32-14.857-10.414-29.14-25.354-32.446l-22.942-4.94c-14.562-2.948-20.4-4.635-21.053-18.037l-.658-13.762c-1.286-26.075-25.341-48.761-59.425-32.074l-76.066,37.167c-12.2,6.064-23.47,4.494-27.382-8.836S9922.781,3922.6,9937.843,3915.027Z" fill="#171717"/><path d="M10417.048,3876.065c-.875-40.22-16.078-56.211-43.622-55.622-38.779.835-47.3,42.712-29.351,68.066l45.992,64.994c15.337,21.784,10.682,41.462-10.457,52.8l-101.781,55.125c-30.822,16.62-50.076,14.855-61.273-.13s-2.878-31.833,5.271-40.713l72.2-81.678c28.319-32.152-2.139-65.938-37.395-36.175l-41.3,34.969c-7.479,6.324-14.057,3.928-17.019,1.091-4.07-3.9-6.742-10.006.333-18.5l20.5-24.733c15.548-18.824,23.316-28.418,23.027-41.826-.373-17.4-12.975-30.175-33.633-29.729-26.091.563-35.886,17.087-35.207,48.615l2.926,135.894c1.508,69.94,43.884,101.656,122.521,99.961,73.2-1.576,122.276-46.138,120.793-114.991Z" fill="#171717"/><path d="M10660.558,3854.515c-5.24-24.541-20.432-39.8-42.181-39.334-23.556.508-36.4,10.211-67.377,35.9l-71.6,59.55c-16.376,13.768-26.947,28.135-26.6,43.717.478,22.468,18.26,39.85,39.632,39.389,13.407-.289,33.606-5.437,44.687-29.6l41.917-90.816c5.183-11.35,17.638-39.173,32.795-42.4s25.217,9.246,23.113,29.232l-12.819,128.619c-1.776,18.51-15.47,22.792-36.113,23.6l-93.447,4.188c-31.878,1.411-57.7,13.932-57.086,42.923.732,34.063,24.542,45.515,45.563,45.063,29.717-.64,55.952-28.032,72.32-42.525l34.855-31.206c12.453-11.144,23.013-8.834,23.446,11.1l.408,18.844c.477,22.1,15.015,40.645,44.729,40,37.329-.8,48.976-32.235,40.487-72.657Z" fill="#171717"/><path d="M10853.125,4008.435c-10.872.235-23.468,4.856-37.008,15.661l-32.785,26.448c-18.171,14.531-28.509,22.729-36.122,22.894-6.16.133-14.269-5.856-14.469-15.278-.155-7.247,3.977-17.125,9.9-28.492l73.4-143.7c6.605-13.194,9.263-24.487,9.064-33.912-.6-27.542-24.09-40.812-44.741-40.368-24.644.526-38.738,19.318-43.349,58.212l-18.07,153.749a131.756,131.756,0,0,0-1.029,19.6c.809,37.326,11.6,50.508,51.1,49.657l72.119-1.551c38.047-.819,53.183-21.811,52.739-42.467S10877.035,4007.92,10853.125,4008.435Z" fill="#171717"/><path d="M10895.885,4125.911H9480.844V3809.678h1415.041Zm-1411.041-4h1407.041V3813.678H9484.844Z" fill="#2680eb"/><rect width="19.689" height="19.689" transform="translate(9472.999 3801.833)" fill="#fff"/><path d="M9494.688,3823.521H9471v-23.688h23.689Zm-19.689-4h15.689v-15.688H9475Z" fill="#2680eb"/><rect width="19.689" height="19.689" transform="translate(10884.04 3801.833)" fill="#fff"/><path d="M10905.729,3823.521h-23.688v-23.688h23.688Zm-19.688-4h15.688v-15.688h-15.688Z" fill="#2680eb"/><rect width="19.689" height="19.689" transform="translate(10884.04 3957.95)" fill="#fff"/><path d="M10905.729,3979.639h-23.688V3955.95h23.688Zm-19.688-4h15.688V3959.95h-15.688Z" fill="#2680eb"/><rect width="19.689" height="19.689" transform="translate(9472.999 3957.95)" fill="#fff"/><path d="M9494.688,3979.639H9471V3955.95h23.689Zm-19.689-4h15.689V3959.95H9475Z" fill="#2680eb"/><rect width="19.689" height="19.689" transform="translate(10178.52 3801.833)" fill="#fff"/><path d="M10200.209,3823.521h-23.689v-23.688h23.689Zm-19.689-4h15.689v-15.688h-15.689Z" fill="#2680eb"/><rect width="19.689" height="19.689" transform="translate(10178.52 4114.067)" fill="#fff"/><path d="M10200.209,4135.756h-23.689v-23.689h23.689Zm-19.689-4h15.689v-15.689h-15.689Z" fill="#2680eb"/><rect width="19.689" height="19.689" transform="translate(10884.04 4114.067)" fill="#fff"/><path d="M10905.729,4135.756h-23.688v-23.689h23.688Zm-19.688-4h15.688v-15.689h-15.688Z" fill="#2680eb"/><rect width="19.689" height="19.689" transform="translate(9472.999 4114.067)" fill="#fff"/><path d="M9494.688,4135.756H9471v-23.689h23.689Zm-19.689-4h15.689v-15.689H9475Z" fill="#2680eb"/></g></g></svg>